<svg width="58" height="58" viewBox="0 0 58 63" fill="none" xmlns="http://www.w3.org/2000/svg">
<g clip-path="url(#clip0_15_201)">
<path fill-rule="evenodd" clip-rule="evenodd" d="M26.8877 37.1992C26.677 37.0086 26.5412 36.7526 26.5101 36.4874C26.4791 36.2223 26.5553 35.9698 26.7221 35.7854L34.0076 27.7309L27.8977 27.6318C27.6304 27.6274 27.3618 27.5177 27.1508 27.3269C26.9399 27.1361 26.8039 26.8797 26.7728 26.6143C26.7417 26.3488 26.818 26.0959 26.985 25.9113C27.152 25.7267 27.3959 25.6255 27.6632 25.6299L36.2028 25.7704C36.3352 25.7724 36.4693 25.8003 36.5975 25.8526C36.7257 25.9048 36.8455 25.9804 36.95 26.0749C37.0545 26.1694 37.1417 26.2811 37.2065 26.4034C37.2713 26.5258 37.3125 26.6564 37.3278 26.7879L38.3215 35.2707C38.3526 35.5362 38.2763 35.789 38.1093 35.9736C37.9423 36.1583 37.6983 36.2595 37.4311 36.2551C37.1638 36.2507 36.8952 36.141 36.6842 35.9502C36.4732 35.7594 36.3372 35.503 36.3061 35.2376L35.5965 29.1681L28.311 37.2226C28.1442 37.407 27.9006 37.5081 27.6336 37.5037C27.3667 37.4993 27.0984 37.3898 26.8877 37.1992Z" fill="black"/>
</g>
<defs>
<clipPath id="clip0_15_201">
<rect x="0.634521" y="43.1171" width="57.0174" height="24.8585" rx="5" transform="rotate(-47.8695 0.634521 43.1171)" fill="white"/>
</clipPath>
</defs>
</svg>