<svg width="25" height="25" viewBox="0 0 40 25" fill="none" xmlns="http://www.w3.org/2000/svg">
             <g clip-path="url(#clip0_12_31)">
             <path d="M23.8636 10.7143C24.3028 10.7143 24.6777 10.8887 24.9885 11.2374C25.2992 11.5862 25.4545 12.0071 25.4545 12.5C25.4545 12.9929 25.2992 13.4138 24.9885 13.7626C24.6777 14.1113 24.3028 14.2857 23.8636 14.2857H23.6772L22.2479 23.5212C22.1816 23.949 21.9993 24.3025 21.701 24.5815C21.4027 24.8605 21.063 25 20.6818 25H4.77273C4.39157 25 4.05185 24.8605 3.75355 24.5815C3.45526 24.3025 3.27296 23.949 3.20668 23.5212L1.77734 14.2857H1.59091C1.15175 14.2857 0.776811 14.1113 0.466087 13.7626C0.155362 13.4138 0 12.9929 0 12.5C0 12.0071 0.155362 11.5862 0.466087 11.2374C0.776811 10.8887 1.15175 10.7143 1.59091 10.7143H23.8636ZM6.02805 21.875C6.24349 21.8564 6.42371 21.7518 6.56871 21.5611C6.71372 21.3704 6.77794 21.1542 6.76136 20.9124L6.36364 15.1088C6.34706 14.867 6.25385 14.6647 6.08398 14.502C5.91412 14.3392 5.72147 14.2671 5.50604 14.2857C5.2906 14.3043 5.11038 14.4089 4.96538 14.5996C4.82037 14.7903 4.75616 15.0065 4.77273 15.2483L5.17045 21.0519C5.18703 21.2844 5.27196 21.4797 5.42525 21.6378C5.57854 21.7959 5.75876 21.875 5.96591 21.875H6.02805ZM11.1364 20.9821V15.1786C11.1364 14.9368 11.0576 14.7275 10.9002 14.5508C10.7428 14.3741 10.5563 14.2857 10.3409 14.2857C10.1255 14.2857 9.93904 14.3741 9.78161 14.5508C9.62417 14.7275 9.54545 14.9368 9.54545 15.1786V20.9821C9.54545 21.224 9.62417 21.4332 9.78161 21.6099C9.93904 21.7866 10.1255 21.875 10.3409 21.875C10.5563 21.875 10.7428 21.7866 10.9002 21.6099C11.0576 21.4332 11.1364 21.224 11.1364 20.9821ZM15.9091 20.9821V15.1786C15.9091 14.9368 15.8304 14.7275 15.6729 14.5508C15.5155 14.3741 15.3291 14.2857 15.1136 14.2857C14.8982 14.2857 14.7118 14.3741 14.5543 14.5508C14.3969 14.7275 14.3182 14.9368 14.3182 15.1786V20.9821C14.3182 21.224 14.3969 21.4332 14.5543 21.6099C14.7118 21.7866 14.8982 21.875 15.1136 21.875C15.3291 21.875 15.5155 21.7866 15.6729 21.6099C15.8304 21.4332 15.9091 21.224 15.9091 20.9821ZM20.2841 21.0519L20.6818 15.2483C20.6984 15.0065 20.6342 14.7903 20.4892 14.5996C20.3442 14.4089 20.1639 14.3043 19.9485 14.2857C19.7331 14.2671 19.5404 14.3392 19.3706 14.502C19.2007 14.6647 19.1075 14.867 19.0909 15.1088L18.6932 20.9124C18.6766 21.1542 18.7408 21.3704 18.8858 21.5611C19.0308 21.7518 19.2111 21.8564 19.4265 21.875H19.4886C19.6958 21.875 19.876 21.7959 20.0293 21.6378C20.1826 21.4797 20.2675 21.2844 20.2841 21.0519ZM5.91619 4.07366L4.7603 9.82143H3.11967L4.375 3.66908C4.53243 2.85063 4.90116 2.18331 5.48118 1.66713C6.0612 1.15095 6.72408 0.892857 7.46982 0.892857H9.54545C9.54545 0.651042 9.62417 0.441778 9.78161 0.265067C9.93904 0.0883557 10.1255 0 10.3409 0H15.1136C15.3291 0 15.5155 0.0883557 15.6729 0.265067C15.8304 0.441778 15.9091 0.651042 15.9091 0.892857H17.9847C18.7305 0.892857 19.3933 1.15095 19.9734 1.66713C20.5534 2.18331 20.9221 2.85063 21.0795 3.66908L22.3349 9.82143H20.6942L19.5384 4.07366C19.4472 3.66443 19.2587 3.32961 18.9728 3.0692C18.687 2.80878 18.3576 2.67857 17.9847 2.67857H15.9091C15.9091 2.92039 15.8304 3.12965 15.6729 3.30636C15.5155 3.48307 15.3291 3.57143 15.1136 3.57143H10.3409C10.1255 3.57143 9.93904 3.48307 9.78161 3.30636C9.62417 3.12965 9.54545 2.92039 9.54545 2.67857H7.46982C7.09695 2.67857 6.76758 2.80878 6.48171 3.0692C6.19585 3.32961 6.00734 3.66443 5.91619 4.07366Z" fill="black"/>
             </g>
             <path d="M32.7273 24.8979L26.4289 18.0102H39.0256L32.7273 24.8979Z" fill="black"/>
             <defs>
             <clipPath id="clip0_12_31">
             <rect width="25.4545" height="25" fill="white"/>
             </clipPath>
             </defs>
             </svg>