<svg  width="60" height="60" viewBox="0 0 130 86" fill="none" xmlns="http://www.w3.org/2000/svg">
          <path d="M24.4482 75.3311V76.0049C24.4482 76.8057 24.3481 77.5234 24.1479 78.1582C23.9478 78.793 23.6597 79.3325 23.2837 79.7769C22.9077 80.2212 22.4561 80.5605 21.9287 80.7949C21.4062 81.0293 20.8203 81.1465 20.1709 81.1465C19.541 81.1465 18.9624 81.0293 18.4351 80.7949C17.9126 80.5605 17.4585 80.2212 17.0728 79.7769C16.6919 79.3325 16.3965 78.793 16.1865 78.1582C15.9766 77.5234 15.8716 76.8057 15.8716 76.0049V75.3311C15.8716 74.5303 15.9741 73.8149 16.1792 73.1851C16.3892 72.5503 16.6846 72.0107 17.0654 71.5664C17.4463 71.1172 17.8979 70.7754 18.4204 70.541C18.9478 70.3066 19.5264 70.1895 20.1562 70.1895C20.8057 70.1895 21.3916 70.3066 21.9141 70.541C22.4414 70.7754 22.8931 71.1172 23.269 71.5664C23.6499 72.0107 23.9404 72.5503 24.1406 73.1851C24.3457 73.8149 24.4482 74.5303 24.4482 75.3311ZM23.0493 76.0049V75.3164C23.0493 74.6816 22.9834 74.1201 22.8516 73.6318C22.7246 73.1436 22.5366 72.7334 22.2876 72.4014C22.0386 72.0693 21.7334 71.8179 21.3721 71.647C21.0156 71.4761 20.6104 71.3906 20.1562 71.3906C19.7168 71.3906 19.3188 71.4761 18.9624 71.647C18.6108 71.8179 18.3081 72.0693 18.0542 72.4014C17.8052 72.7334 17.6123 73.1436 17.4756 73.6318C17.3389 74.1201 17.2705 74.6816 17.2705 75.3164V76.0049C17.2705 76.6445 17.3389 77.2109 17.4756 77.7041C17.6123 78.1924 17.8076 78.605 18.0615 78.9419C18.3203 79.2739 18.6255 79.5254 18.9771 79.6963C19.3335 79.8672 19.7314 79.9526 20.1709 79.9526C20.6299 79.9526 21.0376 79.8672 21.394 79.6963C21.7505 79.5254 22.0508 79.2739 22.2949 78.9419C22.5439 78.605 22.7319 78.1924 22.8589 77.7041C22.9858 77.2109 23.0493 76.6445 23.0493 76.0049ZM30.0149 70.3359H33.5452C34.346 70.3359 35.0223 70.458 35.574 70.7021C36.1307 70.9463 36.553 71.3076 36.8411 71.7861C37.1341 72.2598 37.2806 72.8433 37.2806 73.5366C37.2806 74.0249 37.1805 74.4717 36.9803 74.877C36.785 75.2773 36.5018 75.6191 36.1307 75.9023C35.7645 76.1807 35.325 76.3882 34.8123 76.5249L34.4168 76.6787H31.0989L31.0843 75.5288H33.5892C34.097 75.5288 34.5193 75.4409 34.8562 75.2651C35.1932 75.0845 35.4471 74.8428 35.618 74.54C35.7889 74.2373 35.8743 73.9028 35.8743 73.5366C35.8743 73.1265 35.7937 72.7676 35.6326 72.46C35.4715 72.1523 35.2176 71.9155 34.8709 71.7495C34.5291 71.5786 34.0872 71.4932 33.5452 71.4932H31.4285V81H30.0149V70.3359ZM36.2479 81L33.6551 76.166L35.1272 76.1587L37.7566 80.9121V81H36.2479ZM50.589 75.6899V79.5938C50.4571 79.7891 50.2472 80.0088 49.9591 80.2529C49.671 80.4922 49.273 80.7021 48.7652 80.8828C48.2623 81.0586 47.6129 81.1465 46.817 81.1465C46.1676 81.1465 45.5694 81.0342 45.0226 80.8096C44.4806 80.5801 44.0094 80.248 43.609 79.8135C43.2135 79.374 42.9059 78.8418 42.6861 78.2168C42.4713 77.5869 42.3639 76.874 42.3639 76.0781V75.2505C42.3639 74.4546 42.4566 73.7441 42.6422 73.1191C42.8326 72.4941 43.1109 71.9644 43.4771 71.5298C43.8434 71.0903 44.2926 70.7583 44.8248 70.5337C45.357 70.3042 45.9674 70.1895 46.6559 70.1895C47.4713 70.1895 48.1524 70.3311 48.6993 70.6143C49.2511 70.8926 49.6808 71.2783 49.9884 71.7715C50.3009 72.2646 50.5011 72.8262 50.589 73.4561H49.1754C49.1119 73.0703 48.985 72.7188 48.7945 72.4014C48.609 72.084 48.3429 71.8301 47.9962 71.6396C47.6495 71.4443 47.2027 71.3467 46.6559 71.3467C46.1627 71.3467 45.7354 71.437 45.3741 71.6177C45.0128 71.7983 44.7149 72.0571 44.4806 72.394C44.2462 72.731 44.0704 73.1387 43.9532 73.6172C43.8409 74.0957 43.7848 74.6353 43.7848 75.2358V76.0781C43.7848 76.6934 43.8556 77.2427 43.9972 77.7261C44.1437 78.2095 44.3512 78.6221 44.6197 78.9639C44.8883 79.3008 45.2081 79.5571 45.5792 79.7329C45.9552 79.9087 46.3702 79.9966 46.8243 79.9966C47.3272 79.9966 47.735 79.9551 48.0475 79.8721C48.36 79.7842 48.6041 79.6816 48.7799 79.5645C48.9557 79.4424 49.0899 79.3276 49.1827 79.2202V76.8325H46.7145V75.6899H50.589ZM69.237 78.3047C69.237 78.0557 69.1979 77.8359 69.1198 77.6455C69.0466 77.4502 68.9147 77.2744 68.7243 77.1182C68.5388 76.9619 68.28 76.813 67.9479 76.6714C67.6208 76.5298 67.2058 76.3857 66.7028 76.2393C66.1755 76.083 65.6994 75.9097 65.2746 75.7192C64.8498 75.5239 64.486 75.3018 64.1833 75.0527C63.8806 74.8037 63.6486 74.5181 63.4875 74.1958C63.3264 73.8735 63.2458 73.5049 63.2458 73.0898C63.2458 72.6748 63.3312 72.2915 63.5021 71.9399C63.673 71.5884 63.9172 71.2832 64.2346 71.0244C64.5568 70.7607 64.9401 70.5557 65.3845 70.4092C65.8288 70.2627 66.3244 70.1895 66.8713 70.1895C67.6721 70.1895 68.3508 70.3433 68.9074 70.6509C69.4689 70.9536 69.8962 71.3516 70.1892 71.8447C70.4821 72.333 70.6286 72.8555 70.6286 73.4121H69.2224C69.2224 73.0117 69.1369 72.6577 68.966 72.3501C68.7951 72.0376 68.5363 71.7935 68.1896 71.6177C67.843 71.437 67.4035 71.3467 66.8713 71.3467C66.3684 71.3467 65.9533 71.4224 65.6262 71.5737C65.299 71.7251 65.0549 71.9302 64.8937 72.189C64.7375 72.4478 64.6594 72.7432 64.6594 73.0752C64.6594 73.2998 64.7058 73.5049 64.7985 73.6904C64.8962 73.8711 65.0451 74.0396 65.2453 74.1958C65.4504 74.3521 65.7092 74.4961 66.0217 74.6279C66.3391 74.7598 66.7175 74.8867 67.1569 75.0088C67.7624 75.1797 68.2849 75.3701 68.7243 75.5801C69.1638 75.79 69.5251 76.0269 69.8083 76.2905C70.0964 76.5493 70.3088 76.8447 70.4455 77.1768C70.5871 77.5039 70.6579 77.875 70.6579 78.29C70.6579 78.7246 70.57 79.1177 70.3942 79.4692C70.2185 79.8208 69.967 80.1211 69.6398 80.3701C69.3127 80.6191 68.9196 80.812 68.4606 80.9487C68.0065 81.0806 67.4987 81.1465 66.9372 81.1465C66.444 81.1465 65.9582 81.0781 65.4797 80.9414C65.0061 80.8047 64.5739 80.5996 64.1833 80.3262C63.7976 80.0527 63.4875 79.7158 63.2531 79.3154C63.0236 78.9102 62.9089 78.4414 62.9089 77.9092H64.3151C64.3151 78.2754 64.3859 78.5903 64.5275 78.854C64.6691 79.1128 64.862 79.3276 65.1062 79.4985C65.3552 79.6694 65.6359 79.7964 65.9484 79.8794C66.2658 79.9575 66.5954 79.9966 66.9372 79.9966C67.4304 79.9966 67.8479 79.9282 68.1896 79.7915C68.5314 79.6548 68.7902 79.4595 68.966 79.2056C69.1467 78.9517 69.237 78.6514 69.237 78.3047ZM82.875 74.9209V76.0708H77.1035V74.9209H82.875ZM77.3232 70.3359V81H75.9097V70.3359H77.3232ZM84.1055 70.3359V81H82.6992V70.3359H84.1055ZM98.2781 75.3311V76.0049C98.2781 76.8057 98.178 77.5234 97.9778 78.1582C97.7776 78.793 97.4895 79.3325 97.1136 79.7769C96.7376 80.2212 96.2859 80.5605 95.7586 80.7949C95.2361 81.0293 94.6502 81.1465 94.0008 81.1465C93.3709 81.1465 92.7923 81.0293 92.2649 80.7949C91.7425 80.5605 91.2884 80.2212 90.9026 79.7769C90.5218 79.3325 90.2264 78.793 90.0164 78.1582C89.8064 77.5234 89.7015 76.8057 89.7015 76.0049V75.3311C89.7015 74.5303 89.804 73.8149 90.0091 73.1851C90.219 72.5503 90.5145 72.0107 90.8953 71.5664C91.2762 71.1172 91.7278 70.7754 92.2503 70.541C92.7776 70.3066 93.3562 70.1895 93.9861 70.1895C94.6355 70.1895 95.2215 70.3066 95.7439 70.541C96.2713 70.7754 96.7229 71.1172 97.0989 71.5664C97.4798 72.0107 97.7703 72.5503 97.9705 73.1851C98.1756 73.8149 98.2781 74.5303 98.2781 75.3311ZM96.8792 76.0049V75.3164C96.8792 74.6816 96.8133 74.1201 96.6814 73.6318C96.5545 73.1436 96.3665 72.7334 96.1175 72.4014C95.8685 72.0693 95.5633 71.8179 95.202 71.647C94.8455 71.4761 94.4402 71.3906 93.9861 71.3906C93.5467 71.3906 93.1487 71.4761 92.7923 71.647C92.4407 71.8179 92.138 72.0693 91.8841 72.4014C91.6351 72.7334 91.4422 73.1436 91.3055 73.6318C91.1687 74.1201 91.1004 74.6816 91.1004 75.3164V76.0049C91.1004 76.6445 91.1687 77.2109 91.3055 77.7041C91.4422 78.1924 91.6375 78.605 91.8914 78.9419C92.1502 79.2739 92.4554 79.5254 92.8069 79.6963C93.1634 79.8672 93.5613 79.9526 94.0008 79.9526C94.4598 79.9526 94.8675 79.8672 95.2239 79.6963C95.5804 79.5254 95.8807 79.2739 96.1248 78.9419C96.3738 78.605 96.5618 78.1924 96.6888 77.7041C96.8157 77.2109 96.8792 76.6445 96.8792 76.0049ZM107.778 76.8179H104.929V75.668H107.778C108.33 75.668 108.776 75.5801 109.118 75.4043C109.46 75.2285 109.709 74.9844 109.865 74.6719C110.026 74.3594 110.107 74.0029 110.107 73.6025C110.107 73.2363 110.026 72.8921 109.865 72.5698C109.709 72.2476 109.46 71.9888 109.118 71.7935C108.776 71.5933 108.33 71.4932 107.778 71.4932H105.258V81H103.845V70.3359H107.778C108.584 70.3359 109.265 70.4751 109.821 70.7534C110.378 71.0317 110.8 71.4175 111.088 71.9106C111.377 72.3989 111.521 72.958 111.521 73.5879C111.521 74.2715 111.377 74.855 111.088 75.3384C110.8 75.8218 110.378 76.1904 109.821 76.4443C109.265 76.6934 108.584 76.8179 107.778 76.8179Z" fill="black"/>
          <path d="M47.373 31.3965V33.0811C47.373 35.7829 47.0068 38.208 46.2744 40.3564C45.542 42.5049 44.5085 44.3359 43.1738 45.8496C41.8392 47.347 40.2441 48.4945 38.3887 49.292C36.5495 50.0895 34.5068 50.4883 32.2607 50.4883C30.0309 50.4883 27.9883 50.0895 26.1328 49.292C24.2936 48.4945 22.6986 47.347 21.3477 45.8496C19.9967 44.3359 18.9469 42.5049 18.1982 40.3564C17.4658 38.208 17.0996 35.7829 17.0996 33.0811V31.3965C17.0996 28.6784 17.4658 26.2533 18.1982 24.1211C18.9307 21.9727 19.9642 20.1416 21.2988 18.6279C22.6497 17.1143 24.2448 15.9587 26.084 15.1611C27.9395 14.3636 29.9821 13.9648 32.2119 13.9648C34.458 13.9648 36.5007 14.3636 38.3398 15.1611C40.1953 15.9587 41.7904 17.1143 43.125 18.6279C44.4759 20.1416 45.5176 21.9727 46.25 24.1211C46.9987 26.2533 47.373 28.6784 47.373 31.3965ZM39.9756 33.0811V31.3477C39.9756 29.4596 39.8047 27.7995 39.4629 26.3672C39.1211 24.9349 38.6165 23.7305 37.9492 22.7539C37.2819 21.7773 36.4681 21.0449 35.5078 20.5566C34.5475 20.0521 33.4489 19.7998 32.2119 19.7998C30.9749 19.7998 29.8763 20.0521 28.916 20.5566C27.972 21.0449 27.1663 21.7773 26.499 22.7539C25.848 23.7305 25.3516 24.9349 25.0098 26.3672C24.668 27.7995 24.4971 29.4596 24.4971 31.3477V33.0811C24.4971 34.9528 24.668 36.613 25.0098 38.0615C25.3516 39.4938 25.8561 40.7064 26.5234 41.6992C27.1908 42.6758 28.0046 43.4163 28.9648 43.9209C29.9251 44.4255 31.0238 44.6777 32.2607 44.6777C33.4977 44.6777 34.5964 44.4255 35.5566 43.9209C36.5169 43.4163 37.3226 42.6758 37.9736 41.6992C38.6247 40.7064 39.1211 39.4938 39.4629 38.0615C39.8047 36.613 39.9756 34.9528 39.9756 33.0811Z" fill="black"/>
          <rect x="0.5" y="0.5" width="64" height="64" stroke="black"/>
          <rect width="65" height="65" transform="translate(65)" fill="black"/>
          <path d="M103.68 40.6982C103.68 40.0635 103.582 39.4938 103.387 38.9893C103.208 38.4684 102.866 37.9964 102.361 37.5732C101.857 37.1338 101.149 36.7025 100.237 36.2793C99.3258 35.8561 98.1458 35.4167 96.6973 34.9609C95.0859 34.4401 93.556 33.8542 92.1074 33.2031C90.6751 32.5521 89.4056 31.7952 88.2988 30.9326C87.2083 30.0537 86.3457 29.0365 85.7109 27.8809C85.0924 26.7253 84.7832 25.3825 84.7832 23.8525C84.7832 22.3714 85.1087 21.0286 85.7598 19.8242C86.4108 18.6035 87.3223 17.5618 88.4941 16.6992C89.666 15.8203 91.0495 15.1449 92.6445 14.6729C94.2559 14.2008 96.0218 13.9648 97.9424 13.9648C100.563 13.9648 102.85 14.4368 104.803 15.3809C106.756 16.3249 108.27 17.6188 109.344 19.2627C110.434 20.9066 110.979 22.7865 110.979 24.9023H103.704C103.704 23.8607 103.484 22.9492 103.045 22.168C102.622 21.3704 101.971 20.7438 101.092 20.2881C100.229 19.8324 99.1387 19.6045 97.8203 19.6045C96.5508 19.6045 95.4928 19.7998 94.6465 20.1904C93.8001 20.5648 93.1654 21.0775 92.7422 21.7285C92.319 22.3633 92.1074 23.0794 92.1074 23.877C92.1074 24.4792 92.2539 25.0244 92.5469 25.5127C92.8561 26.001 93.3118 26.4567 93.9141 26.8799C94.5163 27.3031 95.2568 27.7018 96.1357 28.0762C97.0146 28.4505 98.0319 28.8167 99.1875 29.1748C101.124 29.7607 102.825 30.4199 104.29 31.1523C105.771 31.8848 107.008 32.7067 108.001 33.6182C108.994 34.5296 109.743 35.5632 110.247 36.7188C110.752 37.8743 111.004 39.1846 111.004 40.6494C111.004 42.1956 110.703 43.5791 110.101 44.7998C109.498 46.0205 108.628 47.054 107.488 47.9004C106.349 48.7467 104.99 49.3896 103.411 49.8291C101.832 50.2686 100.066 50.4883 98.1133 50.4883C96.3555 50.4883 94.6221 50.2604 92.9131 49.8047C91.2041 49.3327 89.6497 48.6247 88.25 47.6807C86.8665 46.7367 85.7598 45.5322 84.9297 44.0674C84.0996 42.6025 83.6846 40.8691 83.6846 38.8672H91.0332C91.0332 39.974 91.2041 40.9098 91.5459 41.6748C91.8877 42.4398 92.3678 43.0583 92.9863 43.5303C93.6211 44.0023 94.3698 44.3441 95.2324 44.5557C96.1113 44.7673 97.0716 44.873 98.1133 44.873C99.3828 44.873 100.424 44.694 101.238 44.3359C102.068 43.9779 102.679 43.4814 103.069 42.8467C103.476 42.2119 103.68 41.4958 103.68 40.6982Z" fill="white"/>
        </svg>